{"title":"Americas.Got.Talent.S09E03.HDTV.x264-FiNCH","uid":10336543,"size":614693137,"categoryP":"video","categoryS":"tv_shows","magnet":"?xt=urn:btih:1bc45ea5c8d1e11237add1477c38e2f0a26ea309&amp;dn=Americas.Got.Talent.S09E03.HDTV.x264-FiNCH&amp;tr=udp%3A%2F%2Ftracker.openbittorrent.com%3A80&amp;tr=udp%3A%2F%2Fopen.demonii.com%3A1337&amp;tr=udp%3A%2F%2Ftracker.coppersurfer.tk%3A6969&amp;tr=udp%3A%2F%2Fexodus.desync.com%3A6969","seeders":5,"leechers":0,"uploader":"FiNCH","files":-1,"time":1402481130,"description":"*******************************************************************************\n                Americas.Got.Talent.S09E03.HDTV.x264-FiNCH\n*******************************************************************************\n\n-------------------------------------------------------------------------------\nGeneral Information\n-------------------------------------------------------------------------------\n\nFormat : MPEG-4\nFormat profile : Base Media\nCodec ID : isom\nFile size : 586 MiB\nDuration : 1h 24mn\nOverall bit rate mode : Variable\nOverall bit rate : 967 Kbps\nEncoded date : UTC 2014-06-11 07:40:56\nTagged date : UTC 2014-06-11 07:56:29\nWriting application : mp4creator 1.6.1d\n\nVideo\nID : 1\nFormat : AVC\nFormat/Info : Advanced Video Codec\nFormat profile : &lt;a class=&quot;__cf_email__&quot; href=&quot;/cdn-cgi/l/email-protection&quot; data-cfemail=&quot;c58daca2ad8589f6ebf4&quot;&gt;[email&amp;#160;protected]&lt;/a&gt;&lt;script cf-hash='f9e31' type=&quot;text/javascript&quot;&gt;\n/* &lt;![CDATA[ */!function(){try{var t=&quot;currentScript&quot;in document?document.currentScript:function(){for(var t=document.getElementsByTagName(&quot;script&quot;),e=t.length;e--;)if(t[e].getAttribute(&quot;cf-hash&quot;))return t[e]}();if(t&amp;&amp;t.previousSibling){var e,r,n,i,c=t.previousSibling,a=c.getAttribute(&quot;data-cfemail&quot;);if(a){for(e=&quot;&quot;,r=parseInt(a.substr(0,2),16),n=2;a.length-n;n+=2)i=parseInt(a.substr(n,2),16)^r,e+=String.fromCharCode(i);e=document.createTextNode(e),c.parentNode.replaceChild(e,c)}}}catch(u){}}();/* ]]&gt; */&lt;/script&gt;\nFormat settings, CABAC : Yes\nFormat settings, ReFrames : 5 frames\nCodec ID : avc1\nCodec ID/Info : Advanced Video Coding\nDuration : 1h 24mn\nBit rate : 857 Kbps\nMaximum bit rate : 3 794 Kbps\nWidth : 720 pixels\nHeight : 404 pixels\nDisplay aspect ratio : 16:9\nFrame rate mode : Constant\nFrame rate : 29.970 fps\nColor space : YUV\nChroma subsampling : 4:2:0\nBit depth : 8 bits\nScan type : MBAFF\nBits/(Pixel*Frame) : 0.098\nStream size : 518 MiB (88%)\n\nAudio\nID : 2\nFormat : MPEG Audio\nFormat version : Version 1\nFormat profile : Layer 3\nMode : Joint stereo\nMode extension : MS Stereo\nCodec ID : 6B\nDuration : 1h 21mn\nSource duration : 1h 24mn\nBit rate mode : Variable\nBit rate : 105 Kbps\nNominal bit rate : 112 Kbps\nMaximum bit rate : 122 Kbps\nChannel(s) : 2 channels\nSampling rate : 44.1 KHz\nCompression mode : Lossy\nStream size : 63.9 MiB (11%)\nSource stream size : 63.9 MiB (11%)\nWriting library : LAME3.99r\nEncoding settings : -m j -V 4 -q 2 -lowpass 15.6 --abr 112\nLanguage : English\nEncoded date : UTC 2014-06-11 07:56:28\nTagged date : UTC 2014-06-11 07:56:29\n\n-------------------------------------------------------------------------------\n-------------------------------------------------------------------------------\n\nSCREENS\n       &lt;a href=&quot;\nhttp://postimg.org/image/9fdcwzcnp/&quot; rel=&quot;nofollow&quot; target=&quot;_NEW&quot;&gt;\nhttp://postimg.org/image/9fdcwzcnp/&lt;/a&gt; &lt;a href=&quot;\nhttp://postimg.org/image/kg8i204wl/&quot; rel=&quot;nofollow&quot; target=&quot;_NEW&quot;&gt;\nhttp://postimg.org/image/kg8i204wl/&lt;/a&gt; &lt;a href=&quot;\nhttp://postimg.org/image/6ccmtlxp1/&quot; rel=&quot;nofollow&quot; target=&quot;_NEW&quot;&gt;\nhttp://postimg.org/image/6ccmtlxp1/&lt;/a&gt; &lt;a href=&quot;\nhttp://postimg.org/image/bp1h7qllh/&quot; rel=&quot;nofollow&quot; target=&quot;_NEW&quot;&gt;\nhttp://postimg.org/image/bp1h7qllh/&lt;/a&gt; &lt;a href=&quot;\nhttp://postimg.org/image/gxwi5m40l/&quot; rel=&quot;nofollow&quot; target=&quot;_NEW&quot;&gt;\nhttp://postimg.org/image/gxwi5m40l/&lt;/a&gt;\n","torrent":{"xt":"urn:btih:1bc45ea5c8d1e11237add1477c38e2f0a26ea309","amp;dn":"Americas.Got.Talent.S09E03.HDTV.x264-FiNCH","amp;tr":["udp%3A%2F%2Ftracker.openbittorrent.com%3A80","udp%3A%2F%2Fopen.demonii.com%3A1337","udp%3A%2F%2Ftracker.coppersurfer.tk%3A6969","udp%3A%2F%2Fexodus.desync.com%3A6969"],"infoHash":"1bc45ea5c8d1e11237add1477c38e2f0a26ea309","infoHashBuffer":{"type":"Buffer","data":[27,196,94,165,200,209,225,18,55,173,209,71,124,56,226,240,162,110,163,9]},"announce":[],"urlList":[]}}